<?xml version="1.0" encoding="UTF-8" standalone="no"?>
<svg
   id="Layer_1"
   viewBox="0 0 360 360"
   version="1.1"
   sodipodi:docname="logo.svg"
   inkscape:version="1.2.2 (1:1.2.2+202212051552+b0a8486541)"
   width="360"
   height="360"
   inkscape:export-filename="/home/don/Downloads/Agilicus-logo-only-120x120.ng.png"
   inkscape:export-xdpi="32.400002"
   inkscape:export-ydpi="32.400002"
   xmlns:inkscape="http://www.inkscape.org/namespaces/inkscape"
   xmlns:sodipodi="http://sodipodi.sourceforge.net/DTD/sodipodi-0.dtd"
   xmlns="http://www.w3.org/2000/svg"
   xmlns:svg="http://www.w3.org/2000/svg"
   xmlns:rdf="http://www.w3.org/1999/02/22-rdf-syntax-ns#"
   xmlns:cc="http://creativecommons.org/ns#"
   xmlns:dc="http://purl.org/dc/elements/1.1/">
  <metadata
     id="metadata934">
    <rdf:RDF>
      <cc:Work
         rdf:about="">
        <dc:format>image/svg+xml</dc:format>
        <dc:type
           rdf:resource="http://purl.org/dc/dcmitype/StillImage" />
      </cc:Work>
    </rdf:RDF>
  </metadata>
  <defs
     id="defs932" />
  <sodipodi:namedview
     pagecolor="#ffffff"
     bordercolor="#666666"
     borderopacity="1"
     objecttolerance="10"
     gridtolerance="10"
     guidetolerance="10"
     inkscape:pageopacity="0"
     inkscape:pageshadow="2"
     inkscape:window-width="3840"
     inkscape:window-height="1541"
     id="namedview930"
     showgrid="false"
     inkscape:zoom="2.0196834"
     inkscape:cx="-71.298303"
     inkscape:cy="234.19512"
     inkscape:window-x="0"
     inkscape:window-y="0"
     inkscape:window-maximized="1"
     inkscape:current-layer="g2578"
     showguides="false"
     inkscape:showpageshadow="2"
     inkscape:pagecheckerboard="0"
     inkscape:deskcolor="#d1d1d1" />
  <style
     id="style919">
    .st0{fill:#0055b8}
  </style>
  <g
     transform="matrix(286.68812,0,0,286.68812,-31.830851,-157.74837)"
     id="g2578">
    <g
       id="g849"
       style="fill:#ffffff">
      <path
         class="st0"
         d="m 0.71937069,1.0699545 c 0.0124949,-0.00898 0.0292849,-0.00898 0.0413893,0 l 0.37484631,0.278011 c 0.021476,-0.051151 0.03358,-0.1073778 0.03358,-0.1663381 0,-0.2370122 -0.19210866,-0.42912098 -0.42912096,-0.42912098 -0.23701225,0 -0.42912103,0.19210878 -0.42912103,0.42912098 0,0.05896 0.0121044,0.1151872 0.03358,0.1663381 z"
         id="path921"
         style="fill:#ffffff;fill-opacity:1;stroke-width:0.00390465"
         inkscape:connector-curvature="0" />
      <path
         class="st0"
         d="m 0.76075998,1.2265309 c -0.0124949,-0.00898 -0.0292849,-0.00898 -0.0413893,0 L 0.4101224,1.4557339 c 0.0788739,0.094493 0.19718482,0.1546241 0.32994292,0.1546241 0.1327581,0 0.25106902,-0.060132 0.32994288,-0.1546241 z"
         id="path923"
         style="fill:#ffffff;fill-opacity:1;stroke-width:0.00390465"
         inkscape:connector-curvature="0" />
      <path
         class="st0"
         d="m 0.74006534,0.56156903 c -0.3424378,0 -0.62005842,0.27762062 -0.62005842,0.62005837 0,0.3424378 0.27762061,0.6200584 0.62005842,0.6200584 0.34243776,0 0.62005836,-0.2776206 0.62005836,-0.6200584 0,-0.34243775 -0.2776206,-0.62005837 -0.62005836,-0.62005837 z m 0.37640826,0.2053846 c 0.010543,-0.0105426 0.027723,-0.0105426 0.038266,0 0.010543,0.0105425 0.010543,0.027723 0,0.0382656 -0.010542,0.0105426 -0.027723,0.0105426 -0.038266,0 -0.010543,-0.0105426 -0.010543,-0.027723 0,-0.0382656 z m -0.39710291,-0.14486252 0.0206947,-0.0359228 0.0206946,0.0359228 0.0206947,0.0359228 H 0.69867605 Z M 0.32539151,0.76695363 c 0.0105426,-0.0105426 0.027723,-0.0105426 0.0382656,0 0.0105426,0.0105425 0.0105426,0.027723 0,0.0382656 -0.0105425,0.0105426 -0.027723,0.0105426 -0.0382656,0 -0.0105426,-0.0105426 -0.0105426,-0.027723 0,-0.0382656 z M 0.21645178,1.1816274 v 0.041389 l -0.0359228,-0.020695 -0.0359228,-0.020695 0.0359228,-0.020695 0.0359228,-0.020695 z m 0.1472053,0.4142834 c -0.0105425,0.010542 -0.027723,0.010542 -0.0382656,0 -0.0105426,-0.010543 -0.0105426,-0.027723 0,-0.038266 0.0105426,-0.010542 0.027723,-0.010542 0.0382656,0 0.0105426,0.010933 0.0105426,0.027723 0,0.038266 z m 0.3971029,0.1448625 -0.0206946,0.035923 -0.0206947,-0.035923 -0.0206946,-0.035923 h 0.0827786 z M 1.1547391,1.5959108 c -0.010542,0.010542 -0.027723,0.010542 -0.038266,0 -0.010543,-0.010543 -0.010543,-0.027723 0,-0.038266 0.010543,-0.010542 0.027723,-0.010542 0.038266,0 0.010543,0.010933 0.010543,0.027723 0,0.038266 z m -0.41467376,0.071846 c -0.26863992,0 -0.48651939,-0.2178794 -0.48651939,-0.4865193 0,-0.26863993 0.21787947,-0.48612893 0.48651939,-0.48612893 0.26863986,0 0.48651936,0.21787946 0.48651936,0.48651933 0,0.2686399 -0.2178795,0.4861289 -0.48651936,0.4861289 z M 1.2636789,1.2230167 v -0.082779 l 0.035923,0.020695 0.035923,0.020695 -0.035923,0.020695 z"
         id="path925"
         style="fill:#ffffff;fill-opacity:1;stroke-width:0.00390465"
         inkscape:connector-curvature="0" />
    </g>
  </g>
</svg>
